<svg xmlns="http://www.w3.org/2000/svg" viewBox="400 340 1230 1360" width="512" height="512">
<path d="M 1087.63 921.144 C 1094.9 920.134 1128.09 920.74 1136.73 920.746 L 1245.41 920.841 L 1592.91 920.943 C 1595.07 925.986 1594.1 1344.79 1593.67 1377.14 L 1267.52 1568.66 L 1149.1 1638.47 C 1130.35 1649.58 1104.55 1665.99 1085.84 1675.77 C 1081.87 1674.52 1051.62 1656.27 1046.74 1653.39 L 946.712 1594.36 L 781.918 1496.58 L 732.749 1467.13 C 724.338 1462.08 711.096 1454.63 703.496 1448.97 C 692.994 1441.65 672.452 1430.38 660.681 1423.46 C 698.793 1402.56 738.713 1378.44 776.423 1356.5 L 969 1244.27 C 1002.46 1266.4 1044.81 1278.53 1084.74 1280.49 C 1149.84 1285.8 1207.63 1268.67 1266.03 1242.6 C 1265.95 1203.09 1264.49 1153.4 1265.89 1114.43 C 1250.7 1113.18 1222.79 1114.04 1206.19 1114.03 L 1088.8 1114.17 L 1088.53 988.678 C 1088.42 967.846 1088.99 941.603 1087.63 921.144 z" fill="#141210"/>
<path d="M 1265.89 1114.43 C 1273.44 1113.58 1329.28 1076.94 1343.02 1070.83 L 1343.01 1295.8 L 1196.57 1383.85 C 1161.34 1404.72 1119.35 1428.92 1085.04 1450.91 C 1085.01 1472.23 1083.5 1670.08 1085.84 1675.77 C 1081.87 1674.52 1051.62 1656.27 1046.74 1653.39 L 946.712 1594.36 L 781.918 1496.58 L 732.749 1467.13 C 724.338 1462.08 711.096 1454.63 703.496 1448.97 C 692.994 1441.65 672.452 1430.38 660.681 1423.46 C 698.793 1402.56 738.713 1378.44 776.423 1356.5 L 969 1244.27 C 1002.46 1266.4 1044.81 1278.53 1084.74 1280.49 C 1149.84 1285.8 1207.63 1268.67 1266.03 1242.6 C 1265.95 1203.09 1264.49 1153.4 1265.89 1114.43 z" fill="#d4743c"/>
<path d="M 660.681 1423.46 C 698.793 1402.56 738.713 1378.44 776.423 1356.5 L 969 1244.27 C 1002.46 1266.4 1044.81 1278.53 1084.74 1280.49 C 1084.88 1335.94 1085.93 1395.39 1084.57 1450.6 L 890.44 1336.95 C 869.788 1350.61 844.929 1364.54 823.417 1377.32 L 703.496 1448.97 C 692.994 1441.65 672.452 1430.38 660.681 1423.46 z" fill="#141210"/>
<path d="M 1087.63 921.144 C 1094.9 920.134 1128.09 920.74 1136.73 920.746 L 1245.41 920.841 L 1592.91 920.943 L 1428.76 1019.22 C 1401.42 1035.58 1369.46 1053.69 1342.95 1070.71 C 1325.88 1061.71 1309.1 1051.39 1292.39 1041.66 C 1261.16 1023.53 1230.03 1005.24 1198.99 986.781 C 1164.76 966.579 1120.22 942.529 1087.63 921.144 z" fill="#d4743c"/>
<path d="M 555.608 675.103 C 619.672 639.261 683.313 602.669 746.518 565.333 C 853.873 501.917 959.99 437.098 1069.94 378.153 C 1074.35 375.789 1079.7 372.189 1084.48 370.999 C 1113.82 389.521 1144.79 406.508 1174.65 424.271 C 1315.52 508.058 1458.97 588.327 1599.57 672.478 C 1535.43 711.576 1471.01 750.198 1406.3 788.338 L 1362.65 814.564 C 1358.41 817.114 1344.1 825.958 1340.32 827.318 C 1339.36 826.228 1338.19 824.877 1337.11 823.882 C 1287.25 778.013 1221.5 738.884 1154.2 727.75 C 1128.83 723.552 1109.47 724.137 1084.63 724.794 C 1069.5 727.095 1055.83 728.023 1040.75 731.851 C 976.077 748.264 918.911 782.802 879.359 836.788 C 833.405 899.231 814.103 977.355 825.69 1054.01 C 825.802 1054.72 825.92 1055.42 826.045 1056.12 L 556.824 1214.02 C 556.67 1201.61 557.449 1184.09 556.322 1172.43 C 555.478 1168.81 555.569 1136.62 555.534 1131.38 C 555.225 1092.43 555.227 1053.47 555.542 1014.51 L 555.608 675.103 z" fill="#d4743c"/>
<path d="M 1084.48 370.999 C 1113.82 389.521 1144.79 406.508 1174.65 424.271 C 1315.52 508.058 1458.97 588.327 1599.57 672.478 C 1535.43 711.576 1471.01 750.198 1406.3 788.338 L 1362.65 814.564 C 1358.41 817.114 1344.1 825.958 1340.32 827.318 C 1339.04 802.646 1340.02 768.846 1339.99 743.476 L 1084.83 593 C 1083.93 519.777 1086.34 443.936 1084.48 370.999 z" fill="#141210"/>
<path d="M 748.289 786.187 C 777.355 770.347 805.949 752.828 834.763 736.453 C 918.052 689.122 1000.84 639.644 1084.33 592.785 C 1084.66 636.787 1084.76 680.791 1084.63 724.794 C 1069.5 727.095 1055.83 728.023 1040.75 731.851 C 976.077 748.264 918.911 782.802 879.359 836.788 C 833.405 899.231 814.103 977.355 825.69 1054.01 C 825.802 1054.72 825.92 1055.42 826.045 1056.12 L 556.824 1214.02 C 556.67 1201.61 557.449 1184.09 556.322 1172.43 C 568.954 1164.1 585.511 1154.8 598.744 1147.02 L 697.085 1089.73 C 713.672 1079.99 732.507 1069.39 748.467 1058.89 C 749.422 969.667 749.226 875.322 748.289 786.187 z" fill="#141210"/>
<path d="M 826.045 1056.12 C 842.206 1135.44 880.031 1186.97 947.525 1231.47 C 954.48 1236.07 961.646 1240.34 969 1244.27 L 776.423 1356.5 C 738.713 1378.44 698.793 1402.56 660.681 1423.46 C 638.346 1435.93 615.382 1449.98 593.075 1462.87 C 539.204 1493.83 485.767 1525.54 432.779 1557.99 C 434.316 1468.17 432.828 1373.34 432.895 1283.05 L 515.605 1237.36 C 525.266 1232 549.03 1219.65 556.824 1214.02 L 826.045 1056.12 z" fill="#d4743c"/>
</svg>
